HIERARCHY
ROOT hip
{
  OFFSET 0 0 0
  CHANNELS 6 Xposition Yposition Zposition Zrotation Yrotation Xrotation
  JOINT abdomen
  {
    OFFSET 0 20.6881 -0.73152
    CHANNELS 3 Zrotation Xrotation Yrotation
    JOINT chest
    {
      OFFSET 0 11.7043 -0.48768
      CHANNELS 3 Zrotation Xrotation Yrotation
      JOINT neck
      {
        OFFSET 0 22.1894 -2.19456
        CHANNELS 3 Zrotation Xrotation Yrotation
        JOINT head
        {
          OFFSET -0.24384 7.07133 1.2192
          CHANNELS 3 Zrotation Xrotation Yrotation
          JOINT leftEye
          {
            OFFSET 4.14528 8.04674 8.04672
            CHANNELS 3 Zrotation Xrotation Yrotation
            End Site
            {
              OFFSET 1 0 0
            }
          }
          JOINT rightEye
          {
            OFFSET -3.6576 8.04674 8.04672
            CHANNELS 3 Zrotation Xrotation Yrotation
            End Site
            {
              OFFSET 1 0 0
            }
          }
        }
      }
      JOINT rCollar
      {
        OFFSET -2.68224 19.2634 -4.8768
        CHANNELS 3 Zrotation Xrotation Yrotation
        JOINT rShldr
        {
          OFFSET -8.77824 -1.95073 1.46304
          CHANNELS 3 Zrotation Xrotation Yrotation
          JOINT rForeArm
          {
            OFFSET -28.1742 -1.7115 0.48768
            CHANNELS 3 Zrotation Xrotation Yrotation
            JOINT rHand
            {
              OFFSET -22.5879 0.773209 7.07136
              CHANNELS 3 Zrotation Xrotation Yrotation
              JOINT rThumb1
              {
                OFFSET -1.2192 -0.487915 3.41376
                CHANNELS 3 Zrotation Xrotation Yrotation
                JOINT rThumb2
                {
                  OFFSET -3.37035 -0.52449 3.41376
                  CHANNELS 3 Zrotation Xrotation Yrotation
                  End Site
                  {
                    OFFSET -1.78271 -1.18214 1.43049
                  }
                }
              }
              JOINT rIndex1
              {
                OFFSET -7.75947 0.938293 5.60832
                CHANNELS 3 Zrotation Xrotation Yrotation
                JOINT rIndex2
                {
                  OFFSET -2.54057 -0.884171 1.56538
                  CHANNELS 3 Zrotation Xrotation Yrotation
                  End Site
                  {
                    OFFSET -1.62519 -0.234802 1.16502
                  }
                }
              }
              JOINT rMid1
              {
                OFFSET -8.24714 1.18213 3.41376
                CHANNELS 3 Zrotation Xrotation Yrotation
                JOINT rMid2
                {
                  OFFSET -3.10165 -0.590103 1.0647
                  CHANNELS 3 Zrotation Xrotation Yrotation
                  End Site
                  {
                    OFFSET -2.48547 -0.328903 0.83742
                  }
                }
              }
              JOINT rRing1
              {
                OFFSET -8.82822 0.546677 1.51678
                CHANNELS 3 Zrotation Xrotation Yrotation
                JOINT rRing2
                {
                  OFFSET -2.60934 -0.819778 -0.0198488
                  CHANNELS 3 Zrotation Xrotation Yrotation
                  End Site
                  {
                    OFFSET -2.33842 -0.294052 0.168128
                  }
                }
              }
              JOINT rPinky1
              {
                OFFSET -8.27202 -0.0477905 -0.4584
                CHANNELS 3 Zrotation Xrotation Yrotation
                JOINT rPinky2
                {
                  OFFSET -1.82734 -0.647385 -0.700984
                  CHANNELS 3 Zrotation Xrotation Yrotation
                  End Site
                  {
                    OFFSET -1.69225 -0.51767 -0.607171
                  }
                }
              }
            }
          }
        }
      }
      JOINT lCollar
      {
        OFFSET 2.68224 19.2634 -4.8768
        CHANNELS 3 Zrotation Xrotation Yrotation
        JOINT lShldr
        {
          OFFSET 8.77824 -1.95073 1.46304
          CHANNELS 3 Zrotation Xrotation Yrotation
          JOINT lForeArm
          {
            OFFSET 28.1742 -1.7115 0.48768
            CHANNELS 3 Zrotation Xrotation Yrotation
            JOINT lHand
            {
              OFFSET 22.5879 0.773209 7.07136
              CHANNELS 3 Zrotation Xrotation Yrotation
              JOINT lThumb1
              {
                OFFSET 1.2192 -0.487915 3.41376
                CHANNELS 3 Zrotation Xrotation Yrotation
                JOINT lThumb2
                {
                  OFFSET 3.37035 -0.52449 3.41376
                  CHANNELS 3 Zrotation Xrotation Yrotation
                  End Site
                  {
                    OFFSET 1.78271 -1.18214 1.43049
                  }
                }
              }
              JOINT lIndex1
              {
                OFFSET 7.75947 0.938293 5.60832
                CHANNELS 3 Zrotation Xrotation Yrotation
                JOINT lIndex2
                {
                  OFFSET 2.54057 -0.884171 1.56538
                  CHANNELS 3 Zrotation Xrotation Yrotation
                  End Site
                  {
                    OFFSET 1.62519 -0.234802 1.16502
                  }
                }
              }
              JOINT lMid1
              {
                OFFSET 8.24714 1.18213 3.41376
                CHANNELS 3 Zrotation Xrotation Yrotation
                JOINT lMid2
                {
                  OFFSET 3.10165 -0.590103 1.0647
                  CHANNELS 3 Zrotation Xrotation Yrotation
                  End Site
                  {
                    OFFSET 2.48547 -0.328903 0.83742
                  }
                }
              }
              JOINT lRing1
              {
                OFFSET 8.82822 0.546677 1.51678
                CHANNELS 3 Zrotation Xrotation Yrotation
                JOINT lRing2
                {
                  OFFSET 2.60934 -0.819778 -0.0198488
                  CHANNELS 3 Zrotation Xrotation Yrotation
                  End Site
                  {
                    OFFSET 2.33842 -0.294052 0.168128
                  }
                }
              }
              JOINT lPinky1
              {
                OFFSET 8.27202 -0.0477905 -0.4584
                CHANNELS 3 Zrotation Xrotation Yrotation
                JOINT lPinky2
                {
                  OFFSET 1.82734 -0.647385 -0.700984
                  CHANNELS 3 Zrotation Xrotation Yrotation
                  End Site
                  {
                    OFFSET 1.69225 -0.51767 -0.607171
                  }
                }
              }
            }
          }
        }
      }
    }
  }
  JOINT rButtock
  {
    OFFSET -8.77824 4.35084 1.2192
    CHANNELS 3 Zrotation Xrotation Yrotation
    JOINT rThigh
    {
      OFFSET 0 -1.70687 -2.19456
      CHANNELS 3 Zrotation Xrotation Yrotation
      JOINT rShin
      {
        OFFSET 0 -36.8199 0.73152
        CHANNELS 3 Zrotation Xrotation Yrotation
        JOINT rFoot
        {
          OFFSET 0.73152 -45.1104 -5.12064
          CHANNELS 3 Zrotation Xrotation Yrotation
          End Site
          {
            OFFSET -1.1221 -3.69964 12.103
          }
        }
      }
    }
  }
  JOINT lButtock
  {
    OFFSET 8.77824 4.35084 1.2192
    CHANNELS 3 Zrotation Xrotation Yrotation
    JOINT lThigh
    {
      OFFSET 0 -1.70687 -2.19456
      CHANNELS 3 Zrotation Xrotation Yrotation
      JOINT lShin
      {
        OFFSET 0 -36.8199 0.73152
        CHANNELS 3 Zrotation Xrotation Yrotation
        JOINT lFoot
        {
          OFFSET -0.73152 -45.1104 -5.12064
          CHANNELS 3 Zrotation Xrotation Yrotation
          End Site
          {
            OFFSET 1.1221 -3.69964 12.103
          }
        }
      }
    }
  }
}
MOTION
Frames:	7
Frame Time:	0.00833333
0.55641085 82.645134 0.23007342 3.6629043 62.227287 10.524761 4.6201096 -0.891951 22.153187 -7.1819434 -7.0112543 6.5629506 -0.53125536 14.069204 15.042004 3.5094333 -24.9625 30.908955 0.0001582706 -0.018089779 -0.016066572 0.003270425 -0.027911069 0.02582747 0.031571385 0.010558362 -0.023430223 96.174545 43.456203 -13.2329855 -28.172277 -32.299885 70.9453 -0.15648885 -11.232519 -1.5828332 -0.02139261 0.0039464114 -0.00787899 0.008456311 -0.031378135 0.016067125 -0.01878234 -0.026901161 -0.023157265 7.7470384 5.468669 0.42676532 0.0030221553 -0.02744148 0.03196214 2.86701 0.9602237 0.06707645 0.01983654 -0.019971812 -0.0063457284 10.312104 0.7409006 0.038857147 0.0059058038 0.044646114 0.012906452 2.189484 -0.7165881 -0.23323104 -0.037515465 0.034445733 -0.012929418 -87.16315 31.891884 12.401556 27.143425 -43.245243 -89.966866 0.40109316 18.600363 -2.6887558 -0.017543502 -0.021654932 -0.003225613 -0.0074190865 0.0043490306 0.0013726655 0.004938309 0.0060894974 0.00580809 -7.765909 5.479174 -0.4282712 0.03623021 -0.004893927 -0.012851319 -2.884111 0.9669983 -0.080328 0.02265269 -0.010019929 0.026507037 -10.276784 0.77089834 0.0015554369 -0.03797646 -0.0029867997 -0.013940398 -2.2205641 -0.7445937 0.24230857 -0.011307094 -0.016073996 -0.0053486195 -4.257062 -18.796196 -9.15237 -0.059347004 36.068195 0.9690991 -0.4093229 -17.594566 4.521237 0.039393514 0.011339642 -0.019774139 -4.356849 -36.033787 -10.388325 0.58468026 50.120316 -0.9877092 -0.5247083 -10.011231 -3.0879848
0.55800414 81.46623 0.30511287 -2.076244 61.502796 7.2122407 8.06226 1.323212 24.008778 -6.651369 -6.8402834 7.08648 -0.098352045 15.919404 14.496396 2.9393015 -25.712854 30.748318 -0.01825037 -0.02538625 -0.030419936 0.010755762 -0.01764685 0.012216339 0.0132903475 0.0037060515 -0.029003924 84.664246 50.363335 4.7672772 -28.01211 -31.2149 69.2135 -0.13521078 -10.589855 -1.5021377 0.029684884 0.023334963 -0.020493776 -0.021146877 0.0036823638 -0.003449073 -0.0015910104 -0.03432655 -0.005292051 7.7018046 5.4705806 0.46706522 0.017207209 -0.00406567 -0.0061312146 2.8583272 0.99431276 0.0975328 -0.014811248 -0.031093087 0.0076802056 10.290631 0.7320178 0.019588042 -0.0047798096 0.015226293 0.018219935 2.2360501 -0.7348391 -0.20387957 -0.06552 0.048471168 0.00034800236 -88.04488 23.37215 18.615797 26.36746 -45.138676 -93.66896 0.36225697 17.847897 -2.6221914 -0.00096512417 -0.013508391 0.015720924 -0.017818635 0.002647395 0.010823137 0.019173631 0.018382117 -0.043108236 -7.7972827 5.4875417 -0.44162858 0.07186893 -9.156954e-05 -0.0033595238 -2.8944807 0.9852558 -0.10546746 0.03596713 -0.012746173 0.018252911 -10.285465 0.72693926 -0.0068418845 -0.0065489076 0.035896372 0.005139695 -2.244409 -0.75337327 0.21568617 0.0054399436 0.01117739 0.03956033 0.28493232 -22.184048 -14.622905 -0.26661083 38.198208 0.8099962 -0.60938275 -18.566679 2.9106793 0.00068436755 0.044376638 0.0034016804 3.000816 -39.243332 2.4290097 1.1693479 64.53757 -1.6560327 2.748807 -8.833311 9.696631
0.6914978 80.45362 -0.21902966 -4.856987 70.7191 3.901467 8.817223 0.8214935 20.855326 -5.461619 -6.0953865 5.9810505 -1.004599 16.165852 12.981639 3.6118674 -23.958708 28.117357 -0.024660273 -0.0070444653 -0.038988676 0.025691606 -0.010868794 0.0070291846 0.021651307 0.012041894 -0.03760304 78.24109 47.675278 13.83558 -27.769608 -29.874378 66.99634 -0.01757177 -8.708305 -1.1483488 0.032436278 0.012713512 -0.034259405 -0.019518955 0.06533847 0.021234592 0.023312176 -0.03309127 -0.020734526 7.6929994 5.4762707 0.46804684 0.025985397 -0.024646806 -0.02875251 2.8527021 0.95487416 0.121661134 0.0061183623 -0.028603634 0.016455492 10.253357 0.7369297 0.0012945554 -0.0016138107 0.017916998 0.019228958 2.2300963 -0.72401184 -0.20132002 -0.06432164 0.049892586 -0.00903903 -86.25908 24.741144 20.221256 26.674828 -44.842224 -92.73906 0.40021208 17.923946 -2.6836648 -0.009041998 -0.0052154856 -0.0022258193 -0.01932015 0.0011208496 0.017683014 0.014062754 -0.0030703503 -0.03877916 -7.7759857 5.5011363 -0.45233297 0.07716139 0.01627219 -0.015991861 -2.8955884 0.993893 -0.10531413 0.029627878 -0.00801945 0.004554374 -10.3055105 0.71026987 -0.035789173 -0.01613401 0.023633406 0.007309731 -2.2390392 -0.72187436 0.23185146 0.019227149 0.015450379 0.040175866 2.3141081 -19.807087 -12.234208 -0.24002749 37.863907 0.7664634 -2.8058476 -19.282854 -4.3880277 -0.0064345454 0.04516631 0.026220124 4.77845 -36.49211 5.2982426 1.6084796 65.489746 -1.8776529 1.6545016 -3.386281 6.7057505
2.1685557 79.70389 -1.5760825 0.84971994 78.0073 9.07761 7.4454665 -0.70768654 18.925514 -4.928266 -5.57328 5.1619687 -2.7904735 15.450393 11.478287 6.1249666 -23.479675 24.553387 -0.0062612123 -0.005545272 -0.03150755 0.03335645 -0.02332581 0.0006162261 0.012509307 0.01290412 -0.03540151 72.73756 43.082973 20.408035 -26.5238 -24.851435 58.973183 0.14367084 -6.703923 -0.7985675 0.029469794 0.007968003 -0.04404629 0.011595398 0.09070569 0.03141399 0.025555208 0.0025185945 -0.0016557036 7.683986 5.4829516 0.4678785 0.033269845 -0.017265081 -0.03951308 2.8905141 0.9329457 0.10723592 0.027029987 -0.033948325 -0.00806282 10.25093 0.7335726 0.007489858 -0.0022105079 0.013562083 0.02025229 2.2454054 -0.72022575 -0.18640263 -0.038155135 0.022683416 -0.022805557 -85.04351 26.567541 15.29567 26.125048 -45.98606 -95.14838 0.44092497 16.809982 -2.6094735 -0.010299773 0.0011062018 -0.0050531793 -0.011396186 -0.009668742 0.0137290405 -0.020354172 -0.016952813 -0.03994751 -7.7750077 5.5013027 -0.4639718 0.052993286 0.031791784 -0.0384787 -2.8727157 0.97724324 -0.09506077 0.025871795 -0.016244069 -0.02555305 -10.291648 0.70834196 -0.043510098 -0.027160484 0.009865663 0.0056830933 -2.238281 -0.7126116 0.24730198 0.029037338 -0.014065716 0.03564116 2.203292 -19.299765 -14.439673 -0.26841757 39.71037 0.7205351 -3.5868156 -19.073935 -6.656507 -0.0025867466 0.059906017 0.01587836 5.5815644 -33.931824 10.819922 1.7469081 64.55736 -1.8382756 1.2491896 3.6184807 6.256562
4.7559114 81.16035 -3.3264306 53.014473 84.90971 61.289497 5.1273785 -1.1853 16.41274 -5.5505886 -4.6954093 4.2773643 -5.0311885 14.376454 9.609737 8.704392 -22.89638 20.222834 -0.00047585712 -0.0076982155 -0.024974342 0.028312163 -0.039615273 0.0013340487 0.011975552 0.00885991 -0.03777675 71.00921 36.921753 22.13958 -23.582018 -18.203863 48.22696 0.2896183 -2.9831882 -0.29093698 0.008737248 0.022895953 -0.029494226 0.04878017 0.057905912 0.010144396 0.016061995 0.013251495 0.019631272 7.6807656 5.474956 0.43898562 0.037117153 0.0034188475 -0.024709206 2.8911972 0.93759656 0.075774424 0.049130898 -0.00905728 -0.024070153 10.267328 0.7168716 0.022725219 0.00068475184 0.01700839 0.011177189 2.2506707 -0.7413709 -0.18868983 -0.0002347185 0.011969855 -0.05461178 -80.27975 31.879602 7.4795136 26.106213 -46.09302 -95.497795 0.37927654 15.9296055 -2.481693 -0.010970333 0.01820329 0.016873188 -0.023234064 -0.003143769 -0.0034845003 -0.04744599 -0.023436675 -0.0329018 -7.792513 5.5040965 -0.45345405 0.029858127 0.027079899 -0.053402483 -2.8801415 0.9486639 -0.09095793 0.017020017 -0.025964214 -0.041695017 -10.279277 0.71551746 -0.04710232 -0.026583148 0.006115521 0.010937474 -2.24951 -0.70530975 0.23948832 0.035946015 -0.048597354 0.02438401 -0.67856467 -21.880741 -17.483332 -0.43411922 44.873276 0.9113216 -4.685242 -12.014378 -11.070819 0.009750969 0.06759926 -0.008554075 -0.9439744 -25.650702 9.079275 1.0568757 57.514977 -1.1449481 1.1685355 3.9993398 2.9188156
7.878299 82.5633 -5.2808414 127.068214 79.971 136.85687 2.3269665 -1.4959991 12.413266 -6.337508 -4.672125 3.0943444 -5.814103 13.656477 8.060391 10.723387 -23.288496 17.664038 -0.017793441 -0.018061688 -0.036378592 0.018619468 -0.029750252 0.00013900557 0.012462298 0.015201414 -0.03916814 75.409454 29.526714 16.582747 -20.558802 -13.742327 40.34181 0.25509343 2.4912982 0.48233363 -0.004162874 0.036049884 -0.016906125 0.058915082 0.019036096 -0.019640047 0.014870462 -0.015494497 0.016438995 7.694616 5.472633 0.40319937 0.021565063 -0.013055868 0.0018475158 2.898687 0.94548905 0.03556409 0.061375182 0.014884797 -0.017564503 10.286569 0.69010764 0.036459636 0.0033398096 0.014522084 -0.012128795 2.2592115 -0.75646067 -0.21464878 0.026265968 0.026939988 -0.052883223 -75.61866 38.9402 0.5930936 26.024443 -46.461765 -96.33011 0.44077405 17.664255 -2.7058516 -0.0061779143 0.045722898 0.036537196 -0.055664912 0.019777311 -0.0126160225 -0.056826957 -0.02641669 -0.008991333 -7.7674966 5.5150223 -0.43458518 0.012354842 -0.0050679306 -0.033365406 -2.8839703 0.9367129 -0.1066036 0.0044635353 -0.032144904 -0.024502348 -10.291573 0.74003 -0.046301175 -0.03073254 0.0038582433 0.019039122 -2.269184 -0.7195707 0.23946343 0.020431465 -0.0379 0.005516217 -7.229206 -29.294191 -20.912476 -0.74064654 53.197426 1.2730649 -5.608431 -5.3894224 -17.929611 0.01778491 0.059056982 -0.024175419 -7.173568 -19.982712 4.575273 0.5756778 47.89516 -0.81157863 1.4447435 0.3345839 1.451043
11.621465 83.088844 -6.780865 128.25038 74.22814 139.07854 -3.0391464 -0.7430385 8.156086 -6.289418 -5.6393394 1.8975184 -6.2013025 13.76764 6.562019 11.72346 -25.391523 15.584406 -0.03476479 -0.029947216 -0.052015904 0.0058273245 -0.025216205 0.00056451163 0.0012998752 0.025448052 -0.04408671 73.708176 18.026361 13.640817 -16.465197 -9.187074 30.996916 0.042908814 11.413873 1.7100158 -0.0028320884 0.019160138 -0.013059549 0.046538886 0.007189992 -0.015333514 0.031664487 -0.028591936 -0.0017053392 7.712107 5.4721813 0.3909857 0.010183839 -0.033063218 0.012997499 2.900313 0.9443183 0.020484993 0.050874792 0.045777272 -0.041346807 10.293722 0.68006545 0.04452583 0.015438716 0.014387312 -0.013889746 2.263083 -0.7546305 -0.22980429 0.02210122 0.03109045 -0.0376315 -72.332054 45.34546 -7.4661527 26.004501 -46.48675 -96.47655 0.57957053 20.042437 -3.0398388 -0.006840884 0.040509813 0.03807064 -0.071783625 0.039229352 -0.03411777 -0.05076019 -0.017284203 0.007204715 -7.742582 5.51229 -0.45210466 0.0052242572 -0.018155241 -0.0023195713 -2.8800335 0.93568504 -0.10373878 0.010361351 -0.038853224 -0.038096033 -10.308181 0.7573453 -0.029535674 -0.031206155 0.011349135 0.0029729742 -2.2782984 -0.7225236 0.24676034 0.007773602 -0.024316786 -0.012276828 -18.02073 -41.335175 -25.995623 -1.1617082 62.69009 1.8106614 -6.021917 -2.4485695 -25.093262 0.043634314 0.06940025 -0.005072028 -12.304929 -15.292434 2.06616 0.35174343 38.875893 -0.68351686 1.1868881 -3.4141889 -1.0883466
